# xmcd
#
# Track frame offsets:
#	150
#	18932
#	36032
#	50182
#	63005
#	78200
#	91625
#	106390
#	118367
#	133690
#	169052
#
# Disc length: 2454 seconds
#
# Revision: 11
# Processed by: cddbd v1.5.2PL0 Copyright (c) Steve Scherf et al.
# Submitted via: EasyCDDAExtractor 16.0.4.1
#
DISCID=8709940b
DTITLE=Original Soundtrack - The Blues Brothers
DYEAR=1980
DGENRE=Blues
TTITLE0=The Blues Brothers - She Caught the Katy
TTITLE1=The Blues Brothers - Peter Gunn Theme
TTITLE2=The Blues Brothers - Gimme Some Lovin'
TTITLE3=The Blues Brothers and Ray Charles - Shake a Tail Feather
TTITLE4=The Blues Brothers - Everybody Needs Somebody to Love
TTITLE5=James Brown and Rev. James Cleveland Choir - The Old Landmark
TTITLE6=Aretha Franklin - Think
TTITLE7=The Blues Brothers - Theme from Rawhide
TTITLE8=Cab Colloway - Minnie the Moocher
TTITLE9=The Blues Brothers - Sweet Home Chicago
TTITLE10=The Blues Brothers - Jailhouse Rock
EXTD=YEAR: 1980
EXTT0=Vocals: John Belushi (Jake)
EXTT1=Henri Mancini - Instrumental
EXTT2=Vocals: John Belushi (Jake)
EXTT3=Vocals: Henri Mancini
EXTT4=Vocals: John Belushi and Dan Aykroyd (Jake and Elwood)
EXTT5=Vocals: James Brown with Rev. James Cleveland Choir
EXTT6=Vocals: Aretha Franklin
EXTT7=Vocals: Vocals: John Belushi and Dan Aykroyd (Jake and Elwood)
EXTT8=Vocals: Cab Calloway
EXTT9=Vocals: John Belushi and Dan Aykroyd (Jake and Elwood)
EXTT10=Vocals: John Belushi (Jake)
PLAYORDER=
